HIERARCHY
ROOT Hips
{
	OFFSET 0.000000 0.000000 0.000000
	CHANNELS 6 Xposition Yposition Zposition Zrotation Yrotation Xrotation 
	JOINT LeftUpLeg_virtual
	{
		OFFSET 0.000000 0.000000 0.000000
		CHANNELS 3 Zrotation Yrotation Xrotation
		JOINT LeftUpLeg
		{
			OFFSET 8.479694 -4.795517 -0.379053
			CHANNELS 3 Zrotation Yrotation Xrotation
			JOINT LeftLeg
			{
				OFFSET 0.485052 -32.551468 0.112863
				CHANNELS 3 Zrotation Yrotation Xrotation
				JOINT LeftFoot
				{
					OFFSET 0.438033 -32.635670 -3.012641
					CHANNELS 3 Zrotation Yrotation Xrotation
					JOINT LeftToeBase
					{
						OFFSET 0.970169 -13.225353 11.864223
						CHANNELS 3 Zrotation Yrotation Xrotation
						End Site
						{
							OFFSET 0.000000 0.000000 0.000000
						}
					}
				}
			}
		}
	}
	JOINT RightUpLeg_virtual
	{
		OFFSET 0.000000 0.000000 0.000000
		CHANNELS 3 Zrotation Yrotation Xrotation
		JOINT RightUpLeg
		{
			OFFSET -8.479694 -4.795517 -0.379053
			CHANNELS 3 Zrotation Yrotation Xrotation
			JOINT RightLeg
			{
				OFFSET -0.484100 -32.551483 0.112903
				CHANNELS 3 Zrotation Yrotation Xrotation
				JOINT RightFoot
				{
					OFFSET -0.438985 -32.635651 -3.012681
					CHANNELS 3 Zrotation Yrotation Xrotation
					JOINT RightToeBase
					{
						OFFSET -0.970169 -13.225354 11.864223
						CHANNELS 3 Zrotation Yrotation Xrotation
						End Site
						{
							OFFSET 0.000000 0.000000 0.000000
						}
					}
				}
			}
		}
	}
	JOINT Spine_virtual
	{
		OFFSET 0.000000 0.000000 0.000000
		CHANNELS 3 Zrotation Yrotation Xrotation
		JOINT Spine
		{
			OFFSET 0.000000 7.722015 1.166203
			CHANNELS 3 Zrotation Yrotation Xrotation
			JOINT Spine1
			{
				OFFSET 0.000000 12.024086 0.248766
				CHANNELS 3 Zrotation Yrotation Xrotation
				JOINT Spine2
				{
					OFFSET -0.000000 11.503036 -0.491240
					CHANNELS 3 Zrotation Yrotation Xrotation
					JOINT Neck_virtual
					{
						OFFSET 0.000000 0.000000 0.000000
						CHANNELS 3 Zrotation Yrotation Xrotation
						JOINT Neck
						{
							OFFSET 0.000000 18.430687 -3.123054
							CHANNELS 3 Zrotation Yrotation Xrotation
							JOINT Head
							{
								OFFSET -0.000000 9.051071 1.034021
								CHANNELS 3 Zrotation Yrotation Xrotation
								End Site
								{
									OFFSET 0.000000 0.000000 0.000000
								}
							}
						}
					}
					JOINT LeftShoulder_virtual
					{
						OFFSET 0.000000 0.000000 0.000000
						CHANNELS 3 Zrotation Yrotation Xrotation
						JOINT LeftShoulder
						{
							OFFSET 6.197824 13.665230 -4.064723
							CHANNELS 3 Zrotation Yrotation Xrotation
							JOINT LeftArm
							{
								OFFSET 7.778132 -0.187073 -1.709282
								CHANNELS 3 Zrotation Yrotation Xrotation
								JOINT LeftForeArm
								{
									OFFSET 21.954697 0.000000 -2.041093
									CHANNELS 3 Zrotation Yrotation Xrotation
									JOINT LeftHand
									{
										OFFSET 22.992908 0.000000 -0.870901
										CHANNELS 3 Zrotation Yrotation Xrotation
										End Site
										{
											OFFSET 0.000000 0.000000 0.000000
										}
									}
								}
							}
						}
					}
					JOINT RightShoulder_virtual
					{
						OFFSET 0.000000 0.000000 0.000000
						CHANNELS 3 Zrotation Yrotation Xrotation
						JOINT RightShoulder
						{
							OFFSET -6.197824 13.665230 -4.064723
							CHANNELS 3 Zrotation Yrotation Xrotation
							JOINT RightArm
							{
								OFFSET -7.778132 -0.187073 -1.709282
								CHANNELS 3 Zrotation Yrotation Xrotation
								JOINT RightForeArm
								{
									OFFSET -21.954697 0.000000 -2.041093
									CHANNELS 3 Zrotation Yrotation Xrotation
									JOINT RightHand
									{
										OFFSET -22.992908 0.000000 -0.870901
										CHANNELS 3 Zrotation Yrotation Xrotation
										End Site
										{
											OFFSET 0.000000 0.000000 0.000000
										}
									}
								}
							}
						}
					}
				}
			}
		}
	}
}
MOTION
Frames: 13
Frame Time: 0.033333
1.722478 81.052711 61.473957 -179.871775 0.979142 179.922455 -4.234165 -1.974549 11.693613 -1.756703 -3.832023 -25.578416 7.446411 5.451335 25.705516 4.256398 -5.298380 -10.106580 0.000000 0.000000 0.000000 -0.263975 -3.517120 11.291325 -0.874943 -1.270564 -26.800749 -0.212051 6.515437 30.092205 7.536736 4.272611 -10.334950 0.000000 0.000000 0.000000 1.623099 -0.390834 1.703024 -3.077742 1.793148 -4.298794 0.339511 -2.151173 4.350111 0.001973 -0.008808 -0.012169 0.487714 -1.382360 3.686282 -0.388393 3.909373 0.797011 0.000000 0.000000 0.000000 1.925758 -0.566134 0.524895 -2.214613 5.262391 -7.339844 -9.255299 -12.000498 -54.588986 -2.100132 -65.030859 1.575030 0.000000 0.000000 0.000000 -2.241861 0.675186 -0.010886 19.946538 -7.067003 -11.872903 5.225461 6.372345 -55.411774 -3.375984 60.148941 -4.646259 0.000000 0.000000 0.000000 
1.721882 81.047890 61.367123 -179.929067 0.959198 179.861639 -4.331686 -2.014732 11.596594 -1.805803 -3.693218 -25.506918 7.624733 5.682993 25.528993 4.715889 -4.838864 -10.276611 0.000000 0.000000 0.000000 -0.331092 -3.524373 11.210528 -1.061852 -0.975873 -26.740133 -0.228525 6.889568 29.889680 7.769620 4.550823 -10.232100 0.000000 0.000000 0.000000 1.584837 -0.412599 1.587285 -3.079008 1.776500 -4.236704 0.314300 -2.141141 4.376993 -0.042514 -0.010980 -0.045983 0.515033 -1.340308 3.703374 -0.382857 3.836819 0.783419 0.000000 0.000000 0.000000 2.012512 -0.644284 0.531409 -2.148235 5.121165 -7.412570 -9.046268 -12.059389 -54.995341 -2.719492 -65.747913 2.192559 0.000000 0.000000 0.000000 -2.212501 0.653307 -0.033877 19.956023 -7.072368 -11.837470 5.049512 6.429107 -55.434655 -3.306243 60.920779 -4.590072 0.000000 0.000000 0.000000 
1.713717 81.041443 61.241684 -179.900475 0.893901 179.855765 -4.238475 -1.859931 11.539272 -1.743753 -3.878917 -25.346752 7.420155 5.754271 25.511148 4.836676 -4.881643 -10.420457 0.000000 0.000000 0.000000 -0.336874 -3.430435 11.197681 -1.049301 -0.976115 -26.609556 -0.252099 6.843412 29.940250 7.720179 4.499402 -10.316548 0.000000 0.000000 0.000000 1.591731 -0.430699 1.454771 -3.025646 1.680259 -4.201882 0.343671 -2.156071 4.411393 -0.042757 -0.025939 -0.028075 0.524550 -1.356314 3.740509 -0.402032 3.880289 0.877821 0.000000 0.000000 0.000000 2.007113 -0.601083 0.514135 -2.115866 5.164906 -7.443032 -8.929273 -12.098785 -55.108439 -2.529306 -67.222578 2.029650 0.000000 0.000000 0.000000 -2.221773 0.669799 -0.031601 20.007303 -7.038883 -11.739394 4.739160 6.506614 -55.486421 -3.467892 62.620185 -4.808273 0.000000 0.000000 0.000000 
1.690808 81.033615 61.130947 -179.918862 0.675696 179.873168 -4.112004 -1.916655 11.498715 -1.734528 -4.096224 -25.229713 7.156758 5.883039 25.506986 5.038465 -4.912455 -10.499484 0.000000 0.000000 0.000000 -0.394773 -3.517609 11.192911 -1.043341 -0.805850 -26.549219 -0.272281 6.765996 29.949553 7.669213 4.445467 -10.418319 0.000000 0.000000 0.000000 1.543660 -0.505309 1.343526 -2.994023 1.526964 -4.170454 0.371461 -2.192197 4.457151 -0.037116 -0.078670 -0.021197 0.595419 -1.289027 3.779346 -0.452718 3.915816 0.916693 0.000000 0.000000 0.000000 2.116101 -0.583871 0.486359 -2.252891 5.165364 -7.460144 -8.807369 -11.943613 -55.141681 -2.827062 -69.060391 2.367113 0.000000 0.000000 0.000000 -2.132650 0.719714 0.021606 19.890370 -7.031291 -11.780212 4.565507 6.539230 -55.260981 -3.616958 64.800832 -5.029522 0.000000 0.000000 0.000000 
1.690496 81.016075 61.058750 -179.916718 0.540635 179.848730 -4.109692 -1.826688 11.511589 -1.589638 -4.190225 -25.172360 6.887599 5.937887 25.505689 5.290101 -5.004705 -10.644805 0.000000 0.000000 0.000000 -0.417814 -3.482284 11.230052 -1.020981 -0.654356 -26.519084 -0.348543 6.758147 30.066937 7.550599 4.328348 -10.532316 0.000000 0.000000 0.000000 1.520036 -0.433584 1.313802 -2.943079 1.459930 -4.184543 0.431110 -2.156148 4.483004 -0.015312 -0.041433 -0.038782 0.619098 -1.365860 3.850269 -0.486746 3.960558 1.015975 0.000000 0.000000 0.000000 2.127735 -0.634220 0.627006 -2.477326 5.068954 -7.506754 -8.681299 -11.830362 -54.948233 -3.050589 -70.936876 2.656580 0.000000 0.000000 0.000000 -2.152962 0.609096 0.039591 19.949980 -6.994629 -11.963017 4.174119 6.367952 -54.986462 -3.490947 67.148901 -5.005485 0.000000 0.000000 0.000000 
1.707228 80.999413 61.012405 -179.878824 0.515142 179.846025 -3.999217 -1.652256 11.532854 -1.465580 -4.390867 -25.177756 6.607574 5.975156 25.503482 5.639491 -5.060343 -10.776830 0.000000 0.000000 0.000000 -0.422695 -3.291895 11.285638 -0.976369 -0.501371 -26.555318 -0.374147 6.714546 30.226080 7.401275 4.179647 -10.637013 0.000000 0.000000 0.000000 1.523236 -0.394467 1.321093 -2.839820 1.349258 -4.229895 0.477372 -2.144105 4.505661 -0.008692 -0.034568 -0.017531 0.659290 -1.389384 3.838430 -0.545845 4.041466 1.096671 0.000000 0.000000 0.000000 2.113678 -0.585869 0.617191 -2.719826 5.074742 -7.526876 -8.724033 -11.655854 -54.418651 -3.637869 -72.538877 3.340529 0.000000 0.000000 0.000000 -2.112795 0.673014 -0.001786 19.929179 -6.957117 -11.815035 4.052622 6.407531 -54.688819 -3.997501 69.413484 -5.615231 0.000000 0.000000 0.000000 
1.747742 80.977234 60.970112 -179.874289 0.228543 179.840302 -3.841727 -1.722623 11.585709 -1.506400 -4.687439 -25.218383 6.418957 5.814771 25.548760 6.096715 -5.016958 -10.821858 0.000000 0.000000 0.000000 -0.445646 -3.408017 11.357395 -0.926855 -0.432809 -26.621916 -0.370796 6.653008 30.364289 7.309040 4.093754 -10.743222 0.000000 0.000000 0.000000 1.470463 -0.393745 1.396716 -2.720380 1.217824 -4.332561 0.503534 -2.161439 4.498244 -0.033357 -0.067087 -0.043107 0.743167 -1.298566 3.869752 -0.603298 4.055052 1.116784 0.000000 0.000000 0.000000 2.228746 -0.605933 0.657864 -3.020651 5.001625 -7.571209 -8.524155 -11.445407 -53.810860 -4.103793 -73.651125 3.888136 0.000000 0.000000 0.000000 -2.045142 0.711390 0.073165 19.998613 -6.805640 -11.829772 3.868268 6.398370 -54.368039 -3.951976 71.313848 -5.686265 0.000000 0.000000 0.000000 
1.799695 80.960571 60.934505 -179.935405 0.164734 179.850328 -3.915420 -1.700054 11.652292 -1.308308 -4.899020 -25.312551 6.217658 5.767531 25.618586 6.518447 -5.081490 -10.940524 0.000000 0.000000 0.000000 -0.465810 -3.376236 11.408927 -0.896299 -0.496474 -26.691578 -0.365093 6.645150 30.522910 7.247976 4.038349 -10.887694 0.000000 0.000000 0.000000 1.362975 -0.377444 1.454404 -2.595757 1.142654 -4.450875 0.502022 -2.140052 4.504302 -0.039041 -0.066489 -0.046161 0.792825 -1.198959 3.847147 -0.662359 4.088363 1.102775 0.000000 0.000000 0.000000 2.224118 -0.511237 0.642315 -3.223361 4.974055 -7.588586 -8.410867 -11.400538 -53.206139 -4.419415 -74.220934 4.289854 0.000000 0.000000 0.000000 -2.026372 0.775601 0.028630 20.071887 -6.598798 -11.909056 3.788227 6.294030 -54.054892 -4.157020 72.838230 -6.002337 0.000000 0.000000 0.000000 
1.844356 80.946457 60.902893 -179.885149 0.043823 179.841039 -3.865135 -1.707640 11.731421 -1.190229 -5.051298 -25.376306 6.084726 5.693734 25.680174 6.904667 -5.156675 -11.052727 0.000000 0.000000 0.000000 -0.418426 -3.432641 11.473438 -0.859886 -0.535115 -26.699990 -0.343371 6.628965 30.617658 7.213371 3.997056 -10.979688 0.000000 0.000000 0.000000 1.281127 -0.362717 1.561335 -2.427736 1.130225 -4.586817 0.529683 -2.093140 4.485189 -0.028710 -0.049369 -0.049074 0.764875 -1.247345 3.783316 -0.771307 4.102392 1.104506 0.000000 0.000000 0.000000 2.222288 -0.561620 0.647969 -3.378757 4.875407 -7.703796 -8.186798 -11.359563 -52.561878 -5.139722 -74.287624 5.077093 0.000000 0.000000 0.000000 -2.058518 0.800750 -0.014193 20.176744 -6.485940 -11.883679 3.854251 6.291157 -53.858388 -4.308675 74.038390 -6.268132 0.000000 0.000000 0.000000 
1.874381 80.941582 60.873192 -179.985006 -0.151224 179.835152 -4.108638 -1.802823 11.801729 -0.905239 -5.083532 -25.422719 5.891042 5.670046 25.733093 7.180022 -5.328828 -11.189475 0.000000 0.000000 0.000000 -0.437177 -3.611881 11.531561 -0.866120 -0.654661 -26.688211 -0.318110 6.640050 30.631063 7.231499 3.997900 -11.136240 0.000000 0.000000 0.000000 1.144019 -0.418269 1.674802 -2.321096 1.076069 -4.687882 0.506134 -2.098886 4.490896 -0.019202 -0.087620 -0.035851 0.788074 -1.149486 3.771905 -0.848035 4.072487 1.139720 0.000000 0.000000 0.000000 2.251655 -0.470074 0.567335 -3.570258 4.741926 -7.639950 -7.847840 -11.271071 -52.176700 -5.029080 -74.054516 5.014768 0.000000 0.000000 0.000000 -2.029807 0.852725 -0.021810 20.291606 -6.361441 -11.816952 3.957051 6.196065 -53.770091 -4.770970 75.058520 -6.816861 0.000000 0.000000 0.000000 
1.894088 80.943741 60.848286 -179.963095 -0.141810 179.809292 -4.190972 -1.738347 11.870473 -0.742954 -4.998237 -25.397973 5.691362 5.639007 25.680668 7.410372 -5.450515 -11.289342 0.000000 0.000000 0.000000 -0.381717 -3.540334 11.585400 -0.866183 -0.724925 -26.638499 -0.335607 6.689458 30.602215 7.225057 3.955072 -11.243510 0.000000 0.000000 0.000000 1.074870 -0.326578 1.780542 -2.169645 1.086467 -4.783519 0.538193 -2.080591 4.492635 -0.005152 -0.061940 -0.053694 0.762991 -1.198131 3.760542 -0.956536 4.080550 1.145381 0.000000 0.000000 0.000000 2.190694 -0.418215 0.640602 -3.796217 4.698134 -7.642725 -7.469847 -11.432781 -51.683051 -5.072603 -73.616558 5.101269 0.000000 0.000000 0.000000 -2.078609 0.874728 -0.011181 20.382662 -6.224142 -12.023633 4.056602 5.973067 -53.470727 -4.677296 75.942435 -6.778815 0.000000 0.000000 0.000000 
1.919523 80.941742 60.822666 -179.919983 -0.097175 179.817188 -3.862840 -1.657795 11.884579 -1.067363 -5.049138 -25.296755 5.712877 5.490670 25.501749 7.624798 -5.363491 -11.237201 0.000000 0.000000 0.000000 -0.342337 -3.358139 11.621755 -0.865081 -0.669493 -26.585516 -0.345588 6.656067 30.497122 7.220407 3.902321 -11.289928 0.000000 0.000000 0.000000 1.054367 -0.194849 1.863671 -2.031041 1.107246 -4.866491 0.547812 -2.040005 4.485092 -0.029842 -0.031853 -0.077287 0.799858 -1.153136 3.797314 -1.026496 3.978425 1.204487 0.000000 0.000000 0.000000 2.227109 -0.471542 0.661152 -3.861064 4.606778 -7.663173 -7.327150 -11.443973 -51.167874 -5.251632 -73.240597 5.310540 0.000000 0.000000 0.000000 -2.070973 0.839807 -0.039373 20.413721 -6.110930 -11.821921 4.125561 5.798264 -53.261422 -5.467759 76.846376 -7.585829 0.000000 0.000000 0.000000 
1.948611 80.961395 60.800819 -179.965909 -0.190060 179.799471 -4.155314 -1.608203 11.878953 -0.733329 -4.845185 -25.195513 5.511324 5.539213 25.370970 7.585108 -5.617557 -11.331187 0.000000 0.000000 0.000000 -0.348887 -3.377477 11.660771 -0.866240 -0.745545 -26.509385 -0.378566 6.633699 30.369569 7.223728 3.875350 -11.348093 0.000000 0.000000 0.000000 0.969904 -0.101428 1.900167 -1.971740 1.071410 -4.889683 0.543646 -2.065241 4.510608 -0.001172 -0.046412 -0.070226 0.775971 -1.222137 3.774433 -1.137047 3.940744 1.215921 0.000000 0.000000 0.000000 2.192732 -0.481037 0.661575 -4.037121 4.472674 -7.659391 -7.068171 -11.463754 -50.690317 -5.456271 -72.924933 5.553873 0.000000 0.000000 0.000000 -2.062831 0.788705 -0.055601 20.382881 -5.957020 -11.762962 4.194369 5.597805 -52.861672 -5.862243 77.587875 -7.942375 0.000000 0.000000 0.000000 
